#!OML:ASF F:\VICON\USERDATA\INSTALL\rory3\rory3.ASF
:FULLY-SPECIFIED
:DEGREES
1
root 0.09991160404249544 16.9917136466232 -33.21328306824173 2.0595199065124987 -2.524571355724297 -5.034686864195269
lfemur -22.159597476574685 6.750733069309801 -9.555078113545223
ltibia 104.06598113880443
lfoot 7.763965673253717 -12.769399088254199
ltoes -2.506335445118432
rfemur -22.525498766225393 6.437123394079581 34.59199143834818
rtibia 53.56260243095697
rfoot -22.91438170353371 -11.465187152035563
rtoes -3.3210978765708266
lowerback 20.94757499944642 0.0676911933567757 3.9879821122446275
upperback 0.5198025274215647 1.3889369144382675 2.960403665747582
thorax -11.200282740374798 0.5285096224162565 0.5895160627933491
lowerneck -20.405095081112865 -2.9070729748506183 -1.6514616235477275
upperneck 13.647607980427205 -3.6748236969912496 1.1377789643586902
head 7.588359260655592 -1.7257425804948434 0.1927454458364803
lclavicle -1.95217713745829e-15 1.1013516320574194e-15
lhumerus -49.26620267812317 -9.871643151202475 99.47889045428526
lradius 102.31202120527011
lwrist 34.873025845748316
lhand -19.125692457420527 7.126088261820749
lfingers 7.125020000000001
lthumb 7.183787542082732 36.98419803061724
rclavicle -1.95217713745829e-15 1.1013516320574194e-15
rhumerus -45.102802660609306 21.980388483344832 -104.90798968100299
rradius 109.39199704114418
rwrist -19.901193827238558
rhand -25.335201757712277 42.29079324541512
rfingers 7.125020000000001
rthumb 1.1878182319957507 12.314306176372158
2
root 0.08595621242842705 16.949514387283557 -32.30238346764134 3.9316898246134167 -2.1444021535898425 -4.912227280941247
lfemur -29.32069419040051 8.113379502758464 -9.815827750873739
ltibia 104.79898087458145
lfoot 6.738386338691295 -11.006801582213788
ltoes -0.0993720743023836
rfemur -20.620099626091054 7.079562051161021 34.71899125784339
rtibia 53.0348026300825
rfoot -24.268580814755328 -13.164083864178235
rtoes -7.960033671933728
lowerback 18.321286008303037 0.5738539773458781 4.02146201710335
upperback 0.7412498090915123 1.8659346847200398 2.7613652840787983
thorax -9.463898569539726 0.7771948391524321 0.2325597921194042
lowerneck -22.148782583069455 -3.3668697203052584 -1.3611387101030905
upperneck 13.579108365979216 -4.400340204937557 1.3840768660134268
head 7.863834224174929 -2.017859368481563 0.11212384380020002
lclavicle -1.952177182131093e-15 1.1013515693025422e-15
lhumerus -50.6645016894278 -10.793791060381196 99.17729156376393
lradius 102.67602046570437
lwrist 36.39732187337136
lhand -19.47459039221316 8.443692128444617
lfingers 7.125020000000001
lthumb 6.847039607506088 38.312991882787834
rclavicle -1.952177182131093e-15 1.1013515693025422e-15
rhumerus -41.39320611451557 23.700385416371184 -104.24299206705068
rradius 110.7839951497201
rwrist -19.182395144277514
rhand -23.83640401324455 48.77219285497169
rfingers 7.125020000000001
rthumb 2.635305970529719 18.808801283718957
3
root 0.08884084533195835 16.968414055566 -31.428283850905395 4.30968778904106 -0.2527161236934399 -4.858367464233259
lfemur -34.8986916306988 7.308161610312478 -10.467216844869549
ltibia 103.96898117376975
lfoot 3.516428429228566 -8.745664781573694
ltoes -4.045794019364954
rfemur -17.317101116663256 6.205093879101362 35.1166906925933
rtibia 51.815503090093486
rfoot -24.748480499790915 -14.665880957765747
rtoes -10.968990944676012
lowerback 18.80208399289799 -0.10195979411070272 3.527263421488594
upperback -1.1902664809819825 1.0960982833076272 3.599438469915703
thorax -11.953975869583733 0.43062971787983506 1.671302821921616
lowerneck -15.625329340531277 -3.0252321384933323 -3.151225015495745
upperneck 12.251415838934127 -3.6631537531609903 1.7780035099389202
head 6.3749814447184505 -1.7711720809680607 0.7144879274206808
lclavicle -1.952177177396208e-15 1.101351564126805e-15
lhumerus -56.71209741335395 -8.092787184470776 100.42798696288541
lradius 104.07201762934778
lwrist 38.36121675538203
lhand -18.624195425897152 8.92529988658604
lfingers 7.125020000000001
lthumb 7.667874572963834 38.76628978554893
rclavicle -1.952177177396208e-15 1.101351564126805e-15
rhumerus -44.138103558814876 26.030781260978564 -105.26598839648408
rradius 113.84699098777179
rwrist -22.390789265607804
rhand -24.19510347343975 45.792093034495124
rfingers 7.125020000000001
rthumb 2.288966511629242 15.824603531875958
4
root 0.09288111129379956 17.02611304286215 -30.540284240264086 4.465936947617302 0.8525705566284765 -5.086826686756618
lfemur -38.965789764337615 6.854682797234796 -11.070816005335471
ltibia 101.39198210269589
lfoot -0.42533301319634975 -6.523607925638049
ltoes -10.09729841482742
rfemur -13.53220282470648 5.6857849646362695 35.83788966755343
rtibia 50.267903673963765
rfoot -23.13608155802925 -15.472479396764108
rtoes -14.459687780779339
lowerback 19.198282332117053 0.3927863782048783 4.854909648659634
upperback -0.5264196298959363 1.960044244806451 2.9124140559390765
thorax -11.358681296387388 0.7375972823249239 -0.10250958458874987
lowerneck -20.56429394004014 -3.984875345921659 -1.8450168990147622
upperneck 13.77980723633995 -5.191206398342966 1.7329638936558125
head 7.701607190155247 -2.39510522041909 0.22717942165161303
lclavicle -1.952177140546246e-15 1.1013516314104117e-15
lhumerus -57.40689692208202 -11.001090590363017 99.92898879852815
lradius 105.21301531109363
lwrist 41.400208835646026
lhand -17.795900328766926 8.190913305116636
lfingers 7.125020000000001
lthumb 8.467329669553731 38.00119332536249
rclavicle -1.952177140546246e-15 1.1013516314104117e-15
rhumerus -40.21820720852568 25.573882075687973 -104.42899139967494
rradius 116.28498767506207
rwrist -21.304791255457978
rhand -24.13930355741272 52.8950926066061
rfingers 7.125020000000001
rthumb 2.342856427434937 22.928298180279924
5
root 0.1292518044696066 17.117811433417724 -29.578384662025414 5.071913684347101 1.176870876015603 -5.088696680392799
lfemur -42.28048824324702 6.384344028285864 -12.302014292886202
ltibia 96.916083716115
lfoot 1.7213795939292353 -6.799787534862072
ltoes 3.8252486909511347
rfemur -9.483694651711142 6.343713589338316 35.91988955100703
rtibia 48.06330450570345
rfoot -21.764382458293195 -13.546383124318414
rtoes -16.005886379336385
lowerback 17.505589427533266 0.6567513359969479 5.604307519063729
upperback -0.4320587882028245 2.3078326190754197 2.667326048688258
thorax -10.23549153557079 0.8812196749153042 -0.8636598970864573
lowerneck -20.412495028073053 -4.256183425541708 -2.2346273889272754
upperneck 13.670307852660326 -5.557744634122318 2.3245488536230257
head 7.676317652521283 -2.5327637067748743 0.4420280313150459
lclavicle -1.952177122635845e-15 1.1013516469374603e-15
lhumerus -59.426795493872234 -10.6760913272463 99.5108903365687
lradius 106.17001336668588
lwrist 42.79730519475655
lhand -17.23100367252056 8.568601546997895
lfingers 7.125020000000001
lthumb 9.012476325929264 38.35609168338127
rclavicle -1.952177122635845e-15 1.1013516469374603e-15
rhumerus -38.72080860271352 25.877981533439915 -104.0769926626656
rradius 118.25398499962094
rwrist -22.239989541914827
rhand -20.82800854056191 68.82509164697416
rfingers 7.125020000000001
rthumb 5.540381431818066 38.91748613476287
6
root 0.1627858619615753 17.329507717830104 -28.549785113032613 5.560781051727375 1.4067203936277315 -4.923467242690183
lfemur -43.65668761171939 5.550226211481693 -13.599312488499882
ltibia 90.17158614729189
lfoot -4.772656192476317 -4.8376103112138304
ltoes -13.025595702815497
rfemur -5.357006513996751 6.596593060732936 35.68558988401707
rtibia 45.229005575013026
rfoot -17.82538504350843 -10.900788244310988
rtoes -18.375584231490446
lowerback 15.42049816780169 1.2838524843266792 5.39325811881182
upperback -0.25184600036742066 2.9465496334032517 2.9359938642175636
thorax -8.841384244483143 1.2464295875169809 -0.5555233898981362
lowerneck -19.62220069258169 -4.6289607869392295 -2.5010508857379907
upperneck 13.070311229758277 -5.927212855799079 1.9766618174611628
head 7.349813621961174 -2.7709610876403983 0.3461298836557731
lclavicle -1.952177170602651e-15 1.1013516003564607e-15
lhumerus -61.04869434707611 -9.723813486382348 99.87608899312836
lradius 106.52001265556495
lwrist 43.05550452187869
lhand -16.928805461301486 8.333102643232804
lfingers 7.125020000000001
lthumb 9.304014537797048 38.10779283216667
rclavicle -1.952177170602651e-15 1.1013516003564607e-15
rhumerus -38.28030901285096 26.838079821462394 -103.60899434186909
rradius 119.60498316390688
rwrist -18.43839650748978
rhand -26.78439957682265 34.36089372311686
rfingers 7.125020000000001
rthumb -0.2118955811772648 4.3812421527768315
